<?xml version="1.0" encoding="UTF-8" standalone="no"?>
<!-- Created with Inkscape (http://www.inkscape.org/) -->

<svg
   xmlns:dc="http://purl.org/dc/elements/1.1/"
   xmlns:cc="http://creativecommons.org/ns#"
   xmlns:rdf="http://www.w3.org/1999/02/22-rdf-syntax-ns#"
   xmlns:svg="http://www.w3.org/2000/svg"
   xmlns="http://www.w3.org/2000/svg"
   xmlns:sodipodi="http://sodipodi.sourceforge.net/DTD/sodipodi-0.dtd"
   xmlns:inkscape="http://www.inkscape.org/namespaces/inkscape"
   width="256"
   height="256"
   viewBox="0 0 67.733332 67.733335"
   version="1.1"
   id="svg6505"
   inkscape:export-filename="C:\Users\Anagnostopoulos\Desktop\Protocol\Mensio\Mensio Icons\Mensio_Pay_on_Delivery_Icon_01.png"
   inkscape:export-xdpi="300"
   inkscape:export-ydpi="300"
   inkscape:version="0.92.1 r15371"
   sodipodi:docname="Mensio_Pay_On_Delivery_Icon.svg">
  <defs
     id="defs6499">
    <inkscape:path-effect
       only_selected="false"
       apply_with_weight="true"
       apply_no_weight="true"
       helper_size="0"
       steps="2"
       weight="33.333333"
       is_visible="true"
       id="path-effect7093"
       effect="bspline" />
    <inkscape:path-effect
       only_selected="false"
       apply_with_weight="true"
       apply_no_weight="true"
       helper_size="0"
       steps="2"
       weight="33.333333"
       is_visible="true"
       id="path-effect7091"
       effect="bspline" />
    <inkscape:path-effect
       only_selected="false"
       apply_with_weight="true"
       apply_no_weight="true"
       helper_size="0"
       steps="2"
       weight="33.333333"
       is_visible="true"
       id="path-effect7089"
       effect="bspline" />
    <inkscape:path-effect
       effect="bspline"
       id="path-effect5759"
       is_visible="true"
       weight="33.333333"
       steps="2"
       helper_size="0"
       apply_no_weight="true"
       apply_with_weight="true"
       only_selected="false" />
    <inkscape:path-effect
       effect="bspline"
       id="path-effect5751"
       is_visible="true"
       weight="33.333333"
       steps="2"
       helper_size="0"
       apply_no_weight="true"
       apply_with_weight="true"
       only_selected="false" />
    <inkscape:path-effect
       effect="bspline"
       id="path-effect5763"
       is_visible="true"
       weight="33.333333"
       steps="2"
       helper_size="0"
       apply_no_weight="true"
       apply_with_weight="true"
       only_selected="false" />
    <inkscape:path-effect
       effect="bspline"
       id="path-effect7061"
       is_visible="true"
       weight="33.333333"
       steps="2"
       helper_size="0"
       apply_no_weight="true"
       apply_with_weight="true"
       only_selected="false" />
    <inkscape:path-effect
       effect="bspline"
       id="path-effect7063"
       is_visible="true"
       weight="33.333333"
       steps="2"
       helper_size="0"
       apply_no_weight="true"
       apply_with_weight="true"
       only_selected="false" />
    <inkscape:path-effect
       effect="bspline"
       id="path-effect7065"
       is_visible="true"
       weight="33.333333"
       steps="2"
       helper_size="0"
       apply_no_weight="true"
       apply_with_weight="true"
       only_selected="false" />
  </defs>
  <sodipodi:namedview
     id="base"
     pagecolor="#ffffff"
     bordercolor="#666666"
     borderopacity="1.0"
     inkscape:pageopacity="0.0"
     inkscape:pageshadow="2"
     inkscape:zoom="0.98994949"
     inkscape:cx="221.87649"
     inkscape:cy="166.55276"
     inkscape:document-units="mm"
     inkscape:current-layer="layer1"
     showgrid="false"
     units="px"
     inkscape:window-width="1920"
     inkscape:window-height="1017"
     inkscape:window-x="-8"
     inkscape:window-y="-8"
     inkscape:window-maximized="1" />
  <metadata
     id="metadata6502">
    <rdf:RDF>
      <cc:Work
         rdf:about="">
        <dc:format>image/svg+xml</dc:format>
        <dc:type
           rdf:resource="http://purl.org/dc/dcmitype/StillImage" />
        <dc:title></dc:title>
      </cc:Work>
    </rdf:RDF>
  </metadata>
  <g
     inkscape:label="Layer 1"
     inkscape:groupmode="layer"
     id="layer1"
     transform="translate(0,-229.26665)">
    <ellipse
       style="opacity:1;fill:#ffffff;fill-opacity:1;stroke:none;stroke-width:0.50098068;stroke-linecap:round;stroke-miterlimit:4;stroke-dasharray:none;stroke-opacity:1;paint-order:stroke fill markers"
       id="path5814"
       cx="33.675961"
       cy="263.1904"
       rx="34.179173"
       ry="34.084675" />
    <path
       style="opacity:1;fill:#204d74;fill-opacity:1;stroke:#204d74;stroke-width:0.49716783;stroke-linecap:round;stroke-miterlimit:4;stroke-dasharray:none;stroke-opacity:1;paint-order:stroke fill markers"
       d="M 33.69384,229.6386 A 33.618083,33.618083 0 0 0 0.07573491,263.2567 33.618083,33.618083 0 0 0 33.69384,296.87481 33.618083,33.618083 0 0 0 67.311425,263.2567 33.618083,33.618083 0 0 0 65.262455,251.78453 c -0.101957,0.12387 -0.204309,0.24802 -0.316778,0.37776 -2.344362,2.70436 -7.007048,6.70285 -10.731643,11.19931 -3.724595,4.49648 -6.508686,9.48925 -7.415569,11.79463 -0.906881,2.30539 0.06333,1.92286 1.438155,0.35709 1.374828,-1.56576 3.155106,-4.31628 5.087546,-7.0528 1.932438,-2.73653 4.017682,-5.46042 5.784141,-7.51841 1.766462,-2.05798 3.214511,-3.45011 4.469495,-3.98115 1.254988,-0.53104 2.317391,-0.20112 2.901117,0.59015 0.583724,0.79128 0.68889,2.04377 0.01447,3.46335 -0.674423,1.41959 -2.086923,2.95959 -3.850926,5.09323 -1.764006,2.13365 -3.857503,4.83644 -6.150531,8.2703 -2.293027,3.43386 -4.783807,7.5965 -6.658507,9.75961 -1.874699,2.16312 -3.132227,2.32457 -5.61051,1.603 -2.478284,-0.72157 -6.175254,-2.32593 -9.853663,-5.90196 -3.67841,-3.57604 -7.33697,-9.12298 -9.166366,-11.89644 -1.829395,-2.77345 -1.829788,-2.77338 -0.523999,-5.18521 1.305788,-2.41182 3.91753,-7.23494 8.156091,-11.8339 4.238562,-4.59895 10.105242,-8.97467 13.503053,-11.04584 3.397811,-2.07118 4.327623,-1.83864 4.989875,-1.40095 0.662255,0.43769 1.057254,1.08107 1.134298,1.6831 0.07704,0.60202 -0.163944,1.16281 -1.293977,2.5616 -1.130033,1.39879 -3.215304,3.70846 -6.342247,6.97116 -3.126947,3.2627 -7.327742,7.51342 -9.535854,10.51357 -2.208112,3.00015 -2.422705,4.74892 -2.400371,5.69009 0.02233,0.94117 0.350012,1.10924 0.787551,0.40411 0.437536,-0.70513 1.018624,-2.26546 1.87172,-3.83284 0.853094,-1.56737 1.97875,-3.1432 5.756238,-7.32927 3.777486,-4.18608 10.249374,-11.02765 14.09268,-14.53141 0.627284,-0.57188 1.178922,-1.04779 1.677416,-1.45573 A 33.618083,33.618083 0 0 0 33.693837,229.6386 Z m 27.711485,14.64768 c -0.0759,0.0899 -0.14536,0.17523 -0.225825,0.2682 -2.991067,3.45611 -9.045181,8.95526 -13.307716,13.44983 -4.26253,4.49456 -6.388772,7.62204 -7.239349,9.43457 -0.85058,1.81252 -0.379963,2.24296 0.738454,0.94361 1.118421,-1.29935 3.039322,-4.59437 6.743258,-8.78293 3.703937,-4.18856 9.269175,-9.40438 12.764596,-11.7414 0.77262,-0.51657 1.442765,-0.88458 2.033468,-1.14412 a 33.618083,33.618083 0 0 0 -1.506886,-2.42776 z"
       id="path5725"
       inkscape:connector-curvature="0" />
    <path
       sodipodi:nodetypes="ccccccccccc"
       style="fill:#ffffff;stroke:none;stroke-width:0.44960055px;stroke-linecap:butt;stroke-linejoin:miter;stroke-opacity:1"
       d="m 50.071276,283.68346 c -2.322432,4.80933 -8.855496,7.08039 -12.292671,8.99939 -3.437176,1.91901 -3.774681,3.48424 -6.737571,3.5617 -2.962889,0.0775 -8.550074,-1.33349 -12.788702,-3.46596 -4.238628,-2.13248 -7.128108,-4.98649 -8.8262119,-7.10047 -1.6981044,-2.11398 -2.2053628,-3.48847 -0.8981543,-5.31303 1.3072085,-1.82455 4.4287732,-4.0992 7.5223182,-6.76822 3.093545,-2.66901 6.158055,-5.73158 7.980725,-8.27844 1.82267,-2.54686 2.402781,-4.57719 6.292683,-4.68069 3.889901,-0.1035 11.088228,1.71989 15.633768,6.30533 4.545539,4.58545 6.436248,11.93107 4.113816,16.74039 z"
       id="path5761"
       inkscape:connector-curvature="0"
       inkscape:original-d="m 54.284673,286.22076 c -6.535883,2.27187 -13.068949,4.54293 -19.605647,6.81544 -0.337396,1.5657 -0.674904,3.13093 -1.012798,4.697 -5.588005,-1.41149 -11.175189,-2.82245 -16.763269,-4.2333 -2.888996,-2.85405 -5.778475,-5.70806 -8.6676909,-8.56129 -0.506936,-1.37459 -1.014194,-2.74908 -1.521735,-4.12336 3.121386,-2.27506 6.2429469,-4.54972 9.3655279,-6.82457 3.064402,-3.06319 6.128917,-6.12575 9.194464,-9.18863 0.579461,-2.03068 1.159582,-4.06101 1.74048,-6.09151 7.199548,1.82386 14.397871,3.64726 21.597908,5.47089 1.890387,7.34727 3.781103,14.69289 5.67276,22.03933 z"
       inkscape:path-effect="#path-effect7089" />
    <g
       id="g5799"
       transform="matrix(0.71002522,0.71002522,-0.77576685,0.77576685,213.21269,37.341372)">
      <rect
         transform="matrix(0.97103377,-0.2389423,0.19385628,0.98102994,0,0)"
         ry="4.9423189"
         y="248.75981"
         x="-41.956467"
         height="30.218752"
         width="48.325008"
         id="rect5727"
         style="opacity:1;fill:#ffffff;fill-opacity:1;stroke:#204d74;stroke-width:0.50271517;stroke-linecap:round;stroke-miterlimit:4;stroke-dasharray:none;stroke-opacity:1;paint-order:stroke fill markers" />
      <rect
         style="opacity:1;fill:#204d74;fill-opacity:1;stroke:#204d74;stroke-width:0.47263989;stroke-linecap:round;stroke-miterlimit:4;stroke-dasharray:none;stroke-opacity:1;paint-order:stroke fill markers"
         id="rect5735"
         width="45.830986"
         height="28.164757"
         x="-41.769505"
         y="249.82761"
         ry="4.6063857"
         transform="matrix(0.97208055,-0.23464742,0.19747202,0.98030852,0,0)" />
      <circle
         r="11.11406"
         cy="263.13727"
         cx="33.78722"
         id="path5741"
         style="opacity:1;fill:#ffffff;fill-opacity:1;stroke:#204d74;stroke-width:0.5;stroke-linecap:round;stroke-miterlimit:4;stroke-dasharray:none;stroke-opacity:1;paint-order:stroke fill markers" />
      <text
         transform="rotate(-15)"
         id="text5745"
         y="267.93973"
         x="-40.361507"
         style="font-style:normal;font-variant:normal;font-weight:normal;font-stretch:normal;font-size:16.2134819px;line-height:1.25;font-family:Verdana;-inkscape-font-specification:Verdana;letter-spacing:0px;word-spacing:0px;fill:#204d74;fill-opacity:1;stroke:#204d74;stroke-width:0.5;stroke-miterlimit:4;stroke-dasharray:none;stroke-opacity:1"
         xml:space="preserve"><tspan
           style="font-style:normal;font-variant:normal;font-weight:normal;font-stretch:normal;font-family:Verdana;-inkscape-font-specification:Verdana;fill:#204d74;stroke:#204d74;stroke-width:0.5;stroke-miterlimit:4;stroke-dasharray:none;stroke-opacity:1"
           y="267.93973"
           x="-40.361507"
           id="tspan5743"
           sodipodi:role="line">$</tspan></text>
    </g>
    <path
       style="fill:#ffffff;stroke:#204d74;stroke-width:0.38809758px;stroke-linecap:butt;stroke-linejoin:miter;stroke-opacity:1"
       d="m 3.8896127,278.63394 c -0.9614133,-3.59761 0.2805081,-7.67156 0.9421379,-11.03712 0.6616299,-3.36556 0.7241468,-5.96117 1.1305522,-7.80514 0.4064055,-1.84397 1.1566376,-2.9369 2.500194,-3.3465 1.3435564,-0.4096 3.2821682,-0.13629 4.6571212,0.71722 1.374953,0.85351 2.187712,2.28799 2.687826,4.37106 0.500114,2.08307 0.687628,4.81475 0.812661,7.75175 0.125033,2.93701 0.187534,6.07826 -0.156241,8.87858 -0.343774,2.80033 -1.093796,5.25873 -1.305395,7.39695 -0.211599,2.13821 0.115375,3.95496 -0.445074,4.34553 -0.56045,0.39057 -2.0084,-0.64563 -4.333936,-2.66199 -2.3255364,-2.01637 -5.5284329,-5.01273 -6.4898463,-8.61034 z"
       id="path5749"
       inkscape:connector-curvature="0"
       inkscape:original-d="m 1.6481831,279.23524 c 1.261191,-4.20465 2.52216,-8.27279 3.782685,-12.40856 0.06287,-2.59541 0.125385,-5.19102 0.187529,-7.78592 0.750368,-1.09301 1.500606,-2.18594 2.250352,-3.2783 1.937368,0.27267 3.8759779,0.54599 5.8134099,0.81958 0.812864,1.43361 1.625624,2.86809 2.437881,4.30274 0.187916,2.73172 0.37543,5.4634 0.562588,8.19572 0.06289,3.14171 0.125398,6.28296 0.187529,9.42507 -0.749841,2.45862 -1.499863,4.91702 -2.250351,7.37614 0.327365,1.81719 0.65434,3.63394 0.98112,5.45134 -1.447762,-1.03652 -2.895713,-2.07271 -4.344023,-3.1087 -3.2027269,-2.99671 -6.4056239,-5.99307 -9.6087199,-8.98911 z"
       sodipodi:nodetypes="cccccccccccc"
       inkscape:path-effect="#path-effect7091" />
    <path
       style="fill:none;stroke:#204d74;stroke-width:0.38809758px;stroke-linecap:butt;stroke-linejoin:miter;stroke-opacity:1"
       d="m 6.6823177,260.05532 c -0.2501754,1.43427 -0.3439402,3.65396 -0.4577402,5.00158 -0.1138,1.34763 -0.2298845,1.75984 0.3485503,2.10462 0.5784347,0.34477 1.7970829,0.57778 2.8909581,0.62896 1.0938751,0.0512 2.0317531,-0.0854 2.5784931,-0.83661 0.546741,-0.75116 0.703085,-2.11772 0.703063,-3.43219 -2.1e-5,-1.31448 -0.156347,-2.5784 -0.531334,-3.60262 -0.374988,-1.02422 -0.968993,-1.80986 -1.750122,-2.20253 -0.7811289,-0.39267 -1.7500819,-0.39267 -2.43781,-0.0684 -0.6877281,0.32431 -1.093883,0.97288 -1.3440583,2.40715 z"
       id="path5757"
       inkscape:connector-curvature="0"
       inkscape:path-effect="#path-effect7093"
       inkscape:original-d="m 6.5258891,259.27034 c -0.09339,2.21927 -0.187157,4.43895 -0.281293,6.65901 -0.124669,0.47776 -0.249668,0.88746 -0.37506,1.33182 1.28322,0.23888 2.500762,0.47767 3.750588,0.71711 0.9377949,-0.13691 1.8756639,-0.2736 2.8129399,-0.40978 0.156577,-1.36575 0.31292,-2.73231 0.468824,-4.09786 -0.155853,-1.26349 -0.312178,-2.52741 -0.468824,-3.79051 -0.593311,-0.78562 -1.187315,-1.57126 -1.781528,-2.35627 -0.9684789,-5.3e-4 -1.9374319,-5.3e-4 -2.9067059,0 -0.406097,0.64867 -0.812257,1.29724 -1.218941,1.94648 z" />
    <ellipse
       ry="34.084675"
       rx="34.179173"
       cy="263.1904"
       cx="33.675961"
       id="ellipse6474"
       style="opacity:1;fill:#ffffff;fill-opacity:1;stroke:none;stroke-width:0.50098068;stroke-linecap:round;stroke-miterlimit:4;stroke-dasharray:none;stroke-opacity:1;paint-order:stroke fill markers" />
    <path
       inkscape:connector-curvature="0"
       id="path6476"
       d="M 33.69384,229.6386 A 33.618083,33.618083 0 0 0 0.07573491,263.2567 33.618083,33.618083 0 0 0 33.69384,296.87481 33.618083,33.618083 0 0 0 67.311425,263.2567 33.618083,33.618083 0 0 0 65.262455,251.78453 c -0.101957,0.12387 -0.204309,0.24802 -0.316778,0.37776 -2.344362,2.70436 -7.007048,6.70285 -10.731643,11.19931 -3.724595,4.49648 -6.508686,9.48925 -7.415569,11.79463 -0.906881,2.30539 0.06333,1.92286 1.438155,0.35709 1.374828,-1.56576 3.155106,-4.31628 5.087546,-7.0528 1.932438,-2.73653 4.017682,-5.46042 5.784141,-7.51841 1.766462,-2.05798 3.214511,-3.45011 4.469495,-3.98115 1.254988,-0.53104 2.317391,-0.20112 2.901117,0.59015 0.583724,0.79128 0.68889,2.04377 0.01447,3.46335 -0.674423,1.41959 -2.086923,2.95959 -3.850926,5.09323 -1.764006,2.13365 -3.857503,4.83644 -6.150531,8.2703 -2.293027,3.43386 -4.783807,7.5965 -6.658507,9.75961 -1.874699,2.16312 -3.132227,2.32457 -5.61051,1.603 -2.478284,-0.72157 -6.175254,-2.32593 -9.853663,-5.90196 -3.67841,-3.57604 -7.33697,-9.12298 -9.166366,-11.89644 -1.829395,-2.77345 -1.829788,-2.77338 -0.523999,-5.18521 1.305788,-2.41182 3.91753,-7.23494 8.156091,-11.8339 4.238562,-4.59895 10.105242,-8.97467 13.503053,-11.04584 3.397811,-2.07118 4.327623,-1.83864 4.989875,-1.40095 0.662255,0.43769 1.057254,1.08107 1.134298,1.6831 0.07704,0.60202 -0.163944,1.16281 -1.293977,2.5616 -1.130033,1.39879 -3.215304,3.70846 -6.342247,6.97116 -3.126947,3.2627 -7.327742,7.51342 -9.535854,10.51357 -2.208112,3.00015 -2.422705,4.74892 -2.400371,5.69009 0.02233,0.94117 0.350012,1.10924 0.787551,0.40411 0.437536,-0.70513 1.018624,-2.26546 1.87172,-3.83284 0.853094,-1.56737 1.97875,-3.1432 5.756238,-7.32927 3.777486,-4.18608 10.249374,-11.02765 14.09268,-14.53141 0.627284,-0.57188 1.178922,-1.04779 1.677416,-1.45573 A 33.618083,33.618083 0 0 0 33.693837,229.6386 Z m 27.711485,14.64768 c -0.0759,0.0899 -0.14536,0.17523 -0.225825,0.2682 -2.991067,3.45611 -9.045181,8.95526 -13.307716,13.44983 -4.26253,4.49456 -6.388772,7.62204 -7.239349,9.43457 -0.85058,1.81252 -0.379963,2.24296 0.738454,0.94361 1.118421,-1.29935 3.039322,-4.59437 6.743258,-8.78293 3.703937,-4.18856 9.269175,-9.40438 12.764596,-11.7414 0.77262,-0.51657 1.442765,-0.88458 2.033468,-1.14412 a 33.618083,33.618083 0 0 0 -1.506886,-2.42776 z"
       style="opacity:1;fill:#204d74;fill-opacity:1;stroke:#204d74;stroke-width:0.49716783;stroke-linecap:round;stroke-miterlimit:4;stroke-dasharray:none;stroke-opacity:1;paint-order:stroke fill markers" />
    <path
       inkscape:path-effect="#path-effect5763"
       inkscape:original-d="m 54.284673,286.22076 c -6.535883,2.27187 -13.068949,4.54293 -19.605647,6.81544 -0.337396,1.5657 -0.674904,3.13093 -1.012798,4.697 -5.588005,-1.41149 -11.175189,-2.82245 -16.763269,-4.2333 -2.888996,-2.85405 -5.778475,-5.70806 -8.6676909,-8.56129 -0.506936,-1.37459 -1.014194,-2.74908 -1.521735,-4.12336 3.121386,-2.27506 6.2429469,-4.54972 9.3655279,-6.82457 3.064402,-3.06319 6.128917,-6.12575 9.194464,-9.18863 0.579461,-2.03068 1.159582,-4.06101 1.74048,-6.09151 7.199548,1.82386 14.397871,3.64726 21.597908,5.47089 1.890387,7.34727 3.781103,14.69289 5.67276,22.03933 z"
       inkscape:connector-curvature="0"
       id="path6478"
       d="m 50.071276,283.68346 c -2.322432,4.80933 -8.855496,7.08039 -12.292671,8.99939 -3.437176,1.91901 -3.774681,3.48424 -6.737571,3.5617 -2.962889,0.0775 -8.550074,-1.33349 -12.788702,-3.46596 -4.238628,-2.13248 -7.128108,-4.98649 -8.8262119,-7.10047 -1.6981044,-2.11398 -2.2053628,-3.48847 -0.8981543,-5.31303 1.3072085,-1.82455 4.4287732,-4.0992 7.5223182,-6.76822 3.093545,-2.66901 6.158055,-5.73158 7.980725,-8.27844 1.82267,-2.54686 2.402781,-4.57719 6.292683,-4.68069 3.889901,-0.1035 11.088228,1.71989 15.633768,6.30533 4.545539,4.58545 6.436248,11.93107 4.113816,16.74039 z"
       style="fill:#ffffff;stroke:none;stroke-width:0.44960055px;stroke-linecap:butt;stroke-linejoin:miter;stroke-opacity:1"
       sodipodi:nodetypes="ccccccccccc" />
    <path
       style="opacity:1;fill:#ffffff;fill-opacity:1;stroke:#204d74;stroke-width:0.40717143;stroke-linecap:round;stroke-miterlimit:4;stroke-dasharray:none;stroke-opacity:1;paint-order:stroke fill markers"
       d="m 65.939029,266.62757 c 0.296769,0.12919 -9.194549,22.15602 -12.736517,23.20012 C 49.660546,290.87182 22.656949,270.95855 14.630576,265.30626 7.6451396,260.387 0.74975414,260.5652 0.91030854,260.28299 L 14.033503,237.2163 c 20.476621,7.74233 25.227951,23.76554 51.905526,29.41127 z"
       id="rect7161"
       inkscape:connector-curvature="0"
       sodipodi:nodetypes="czsscc" />
    <path
       sodipodi:nodetypes="czsscc"
       inkscape:connector-curvature="0"
       id="path7164"
       d="m 65.010321,267.0428 c 0.296588,0.1291 -9.188937,22.14248 -12.728741,23.18595 C 48.741777,291.27222 21.754665,271.37114 13.733194,265.72229 6.752022,260.80602 -0.1391537,260.98413 0.02130267,260.7021 L 13.136485,237.64946 c 20.46412,7.73762 25.212548,23.75104 51.873836,29.39334 z"
       style="opacity:1;fill:#ffffff;fill-opacity:1;stroke:#204d74;stroke-width:0.40692285;stroke-linecap:round;stroke-miterlimit:4;stroke-dasharray:none;stroke-opacity:1;paint-order:stroke fill markers" />
    <path
       style="opacity:1;fill:#ffffff;fill-opacity:1;stroke:#204d74;stroke-width:0.40005147;stroke-linecap:round;stroke-miterlimit:4;stroke-dasharray:none;stroke-opacity:1;paint-order:stroke fill markers"
       d="m 64.025875,268.62511 c 0.291581,0.12693 -9.033772,21.76858 -12.513803,22.79443 C 48.032042,292.44541 21.50064,272.88036 13.614617,267.3269 6.7513317,262.49366 -0.02347881,262.66874 0.1342681,262.39147 L 13.027986,239.72813 c 20.11856,7.60695 24.786807,23.34997 50.997889,28.89698 z"
       id="path7166"
       inkscape:connector-curvature="0"
       sodipodi:nodetypes="czsscc" />
    <path
       sodipodi:type="inkscape:offset"
       inkscape:radius="0"
       inkscape:original="M 12.910156 243.25586 L 0.59570312 264.90039 C 0.44504213 265.1652 6.915711 264.9991 13.470703 269.61523 C 21.002488 274.91924 46.342307 293.60478 49.666016 292.625 C 52.989727 291.64523 61.89567 270.97669 61.617188 270.85547 C 36.583492 265.55763 32.125001 250.52112 12.910156 243.25586 z "
       style="opacity:1;fill:#ffffff;fill-opacity:1;stroke:#204d74;stroke-width:0.38208142;stroke-linecap:round;stroke-miterlimit:4;stroke-dasharray:none;stroke-opacity:1;paint-order:stroke fill markers"
       id="path7168"
       d="M 12.910156,243.25586 0.59570312,264.90039 c -0.15066099,0.26481 6.32000788,0.0987 12.87499988,4.71484 7.531785,5.30401 32.871604,23.98955 36.195313,23.00977 3.323711,-0.97977 12.229654,-21.64831 11.951172,-21.76953 -25.033696,-5.29784 -29.492187,-20.33435 -48.707032,-27.59961 z"
       transform="matrix(1.0187694,0,0,1.0187694,-0.00755825,-6.1649577)" />
    <path
       style="opacity:1;fill:#204d74;fill-opacity:1;stroke:#204d74;stroke-width:0.38925287;stroke-linecap:round;stroke-miterlimit:4;stroke-dasharray:none;stroke-opacity:1;paint-order:stroke fill markers"
       d="m 3.8008884,262.19921 c 12.5289866,2.58685 21.1490186,13.2464 31.9565826,19.31887 4.674873,2.84866 9.319075,6.75034 14.465081,8.23168 4.24108,-5.57454 7.214386,-12.29511 9.710146,-18.53682 -14.535564,-2.93623 -25.483638,-13.43979 -36.890597,-22.08064 -2.836481,-1.92164 -5.838527,-3.60939 -9.003774,-4.92671 -3.412479,5.99788 -6.8249588,11.99575 -10.2374386,17.99362 z"
       id="path7178"
       inkscape:connector-curvature="0" />
    <ellipse
       cy="166.80768"
       cx="211.33878"
       id="circle6484"
       style="opacity:1;fill:#ffffff;fill-opacity:1;stroke:#204d74;stroke-width:0.34015793;stroke-linecap:round;stroke-miterlimit:4;stroke-dasharray:none;stroke-opacity:1;paint-order:stroke fill markers"
       transform="rotate(45)"
       rx="7.2336016"
       ry="7.9033647" />
    <text
       transform="matrix(0.84472928,0.46213369,-0.53884663,0.88901951,0,0)"
       id="text6488"
       y="214.73813"
       x="168.74736"
       style="font-style:normal;font-variant:normal;font-weight:normal;font-stretch:normal;font-size:11.03028774px;line-height:1.25;font-family:Verdana;-inkscape-font-specification:Verdana;letter-spacing:0px;word-spacing:0px;fill:#204d74;fill-opacity:1;stroke:#204d74;stroke-width:0.34015793;stroke-miterlimit:4;stroke-dasharray:none;stroke-opacity:1"
       xml:space="preserve"><tspan
         style="font-style:normal;font-variant:normal;font-weight:normal;font-stretch:normal;font-family:Verdana;-inkscape-font-specification:Verdana;fill:#204d74;stroke:#204d74;stroke-width:0.34015793;stroke-miterlimit:4;stroke-dasharray:none;stroke-opacity:1"
         y="214.73813"
         x="168.74736"
         id="tspan6486"
         sodipodi:role="line">$</tspan></text>
    <path
       inkscape:path-effect="#path-effect5751"
       sodipodi:nodetypes="cccccccccccc"
       inkscape:original-d="m 1.6481831,279.23524 c 1.261191,-4.20465 2.52216,-8.27279 3.782685,-12.40856 0.06287,-2.59541 0.125385,-5.19102 0.187529,-7.78592 0.750368,-1.09301 1.500606,-2.18594 2.250352,-3.2783 1.937368,0.27267 3.8759779,0.54599 5.8134099,0.81958 0.812864,1.43361 1.625624,2.86809 2.437881,4.30274 0.187916,2.73172 0.37543,5.4634 0.562588,8.19572 0.06289,3.14171 0.125398,6.28296 0.187529,9.42507 -0.749841,2.45862 -1.499863,4.91702 -2.250351,7.37614 0.327365,1.81719 0.65434,3.63394 0.98112,5.45134 -1.447762,-1.03652 -2.895713,-2.07271 -4.344023,-3.1087 -3.2027269,-2.99671 -6.4056239,-5.99307 -9.6087199,-8.98911 z"
       inkscape:connector-curvature="0"
       id="path6492"
       d="m 3.8896127,278.63394 c -0.9614133,-3.59761 0.2805081,-7.67156 0.9421379,-11.03712 0.6616299,-3.36556 0.7241468,-5.96117 1.1305522,-7.80514 0.4064055,-1.84397 1.1566376,-2.9369 2.500194,-3.3465 1.3435564,-0.4096 3.2821682,-0.13629 4.6571212,0.71722 1.374953,0.85351 2.187712,2.28799 2.687826,4.37106 0.500114,2.08307 0.687628,4.81475 0.812661,7.75175 0.125033,2.93701 0.187534,6.07826 -0.156241,8.87858 -0.343774,2.80033 -1.093796,5.25873 -1.305395,7.39695 -0.211599,2.13821 0.115375,3.95496 -0.445074,4.34553 -0.56045,0.39057 -2.0084,-0.64563 -4.333936,-2.66199 -2.3255364,-2.01637 -5.5284329,-5.01273 -6.4898463,-8.61034 z"
       style="fill:#ffffff;stroke:#204d74;stroke-width:0.38809758px;stroke-linecap:butt;stroke-linejoin:miter;stroke-opacity:1" />
    <path
       inkscape:original-d="m 6.5258891,259.27034 c -0.09339,2.21927 -0.187157,4.43895 -0.281293,6.65901 -0.124669,0.47776 -0.249668,0.88746 -0.37506,1.33182 1.28322,0.23888 2.500762,0.47767 3.750588,0.71711 0.9377949,-0.13691 1.8756639,-0.2736 2.8129399,-0.40978 0.156577,-1.36575 0.31292,-2.73231 0.468824,-4.09786 -0.155853,-1.26349 -0.312178,-2.52741 -0.468824,-3.79051 -0.593311,-0.78562 -1.187315,-1.57126 -1.781528,-2.35627 -0.9684789,-5.3e-4 -1.9374319,-5.3e-4 -2.9067059,0 -0.406097,0.64867 -0.812257,1.29724 -1.218941,1.94648 z"
       inkscape:path-effect="#path-effect5759"
       inkscape:connector-curvature="0"
       id="path6494"
       d="m 6.6823177,260.05532 c -0.2501754,1.43427 -0.3439402,3.65396 -0.4577402,5.00158 -0.1138,1.34763 -0.2298845,1.75984 0.3485503,2.10462 0.5784347,0.34477 1.7970829,0.57778 2.8909581,0.62896 1.0938751,0.0512 2.0317531,-0.0854 2.5784931,-0.83661 0.546741,-0.75116 0.703085,-2.11772 0.703063,-3.43219 -2.1e-5,-1.31448 -0.156347,-2.5784 -0.531334,-3.60262 -0.374988,-1.02422 -0.968993,-1.80986 -1.750122,-2.20253 -0.7811289,-0.39267 -1.7500819,-0.39267 -2.43781,-0.0684 -0.6877281,0.32431 -1.093883,0.97288 -1.3440583,2.40715 z"
       style="fill:none;stroke:#204d74;stroke-width:0.38809758px;stroke-linecap:butt;stroke-linejoin:miter;stroke-opacity:1" />
    <text
       xml:space="preserve"
       style="font-style:normal;font-variant:normal;font-weight:normal;font-stretch:normal;font-size:6.07266188px;line-height:1.25;font-family:Verdana;-inkscape-font-specification:Verdana;letter-spacing:0px;word-spacing:0px;fill:#ffffff;fill-opacity:1;stroke:#ffffff;stroke-width:0.187272;stroke-miterlimit:4;stroke-dasharray:none;stroke-opacity:1"
       x="196.3018"
       y="219.49551"
       id="text7197"
       transform="matrix(0.84472928,0.46213369,-0.53884663,0.88901951,0,0)"><tspan
         sodipodi:role="line"
         id="tspan7195"
         x="196.3018"
         y="219.49551"
         style="font-style:normal;font-variant:normal;font-weight:normal;font-stretch:normal;font-family:Verdana;-inkscape-font-specification:Verdana;fill:#ffffff;stroke:#ffffff;stroke-width:0.187272;stroke-miterlimit:4;stroke-dasharray:none;stroke-opacity:1">$</tspan></text>
    <text
       transform="matrix(0.84472928,0.46213369,-0.53884663,0.88901951,0,0)"
       id="text7201"
       y="205.17796"
       x="146.05954"
       style="font-style:normal;font-variant:normal;font-weight:normal;font-stretch:normal;font-size:6.07266188px;line-height:1.25;font-family:Verdana;-inkscape-font-specification:Verdana;letter-spacing:0px;word-spacing:0px;fill:#ffffff;fill-opacity:1;stroke:#ffffff;stroke-width:0.187272;stroke-miterlimit:4;stroke-dasharray:none;stroke-opacity:1"
       xml:space="preserve"><tspan
         style="font-style:normal;font-variant:normal;font-weight:normal;font-stretch:normal;font-family:Verdana;-inkscape-font-specification:Verdana;fill:#ffffff;stroke:#ffffff;stroke-width:0.187272;stroke-miterlimit:4;stroke-dasharray:none;stroke-opacity:1"
         y="205.17796"
         x="146.05954"
         id="tspan7199"
         sodipodi:role="line">$</tspan></text>
  </g>
</svg>
