<?xml version="1.0" encoding="UTF-8"?>
<!-- Created with Inkscape (http://www.inkscape.org/) -->
<svg width="31.746mm" height="31.944mm" version="1.1" viewBox="0 0 31.746031 31.943922" xmlns="http://www.w3.org/2000/svg" xmlns:cc="http://creativecommons.org/ns#" xmlns:dc="http://purl.org/dc/elements/1.1/" xmlns:rdf="http://www.w3.org/1999/02/22-rdf-syntax-ns#">
 <metadata>
  <rdf:RDF>
   <cc:Work rdf:about="">
    <dc:format>image/svg+xml</dc:format>
    <dc:type rdf:resource="http://purl.org/dc/dcmitype/StillImage"/>
    <dc:title/>
   </cc:Work>
  </rdf:RDF>
 </metadata>
 <g transform="translate(352.27 -40.635)">
  <g transform="matrix(1.1111 0 0 1.1111 -518.51 70.593)" fill="#fff">
   <g transform="matrix(.38415 0 0 .3667 170.72 -84.489)">
    <path d="m-3.8525 166.48c0 5.3044-4.3014 9.6059-9.6059 9.6059-5.2973 0-9.6059-4.3014-9.6059-9.6059 0-5.2974 4.3085-9.6058 9.6059-9.6058 5.3044 0 9.6059 4.3085 9.6059 9.6058" fill="#fff"/>
   </g>
   <g transform="matrix(.38415 0 0 .35075 136.33 -20.223)">
    <g transform="translate(-11.516 -43.506)" fill="#fff">
     <path d="m120.48 60.211v-7.082h-59.285l-4.9102-8.8047c-0.625-1.1211-1.7422-1.8203-3.0273-1.8203h-7.1523v7.082h5.0039l20.711 37.141c0.625 1.1211 1.8086 1.8203 3.0938 1.8203h31.402v-7.0859h-29.32l-3.9492-7.082h40.352v-7.082h-44.301l-3.9531-7.0859h55.336"/>
     <path d="m85.199 100.95c0 2.9336-2.3828 5.3125-5.3125 5.3125-2.9336 0-5.3125-2.3789-5.3125-5.3125 0-2.9336 2.3789-5.3125 5.3125-5.3125 2.9297 0 5.3125 2.3789 5.3125 5.3125"/>
     <path d="m106.32 100.95c0 2.9336-2.3789 5.3125-5.3125 5.3125-2.9336 0-5.3125-2.3789-5.3125-5.3125 0-2.9336 2.3789-5.3125 5.3125-5.3125 2.9336 0 5.3125 2.3789 5.3125 5.3125"/>
    </g>
   </g>
  </g>
 </g>
</svg>
