<svg xmlns="http://www.w3.org/2000/svg" viewBox="0 0 89.99 89.99"><title>mensiopress-symbol-wishlist-black</title><g id="Layer_2" data-name="Layer 2"><g id="Layer_1-2" data-name="Layer 1"><g id="g3045"><g id="surface2707341"><path id="path5735" d="M81.41,52.75a1.9,1.9,0,0,0-1.77-2H73.55V43.82a1.9,1.9,0,0,0-1.77-2H68.34a1.91,1.91,0,0,0-1.77,2v6.92H60.48a1.9,1.9,0,0,0-1.77,2v3.9a1.9,1.9,0,0,0,1.77,2h6.09v6.91a1.91,1.91,0,0,0,1.77,2h3.44a1.9,1.9,0,0,0,1.77-2V58.66h6.09a1.9,1.9,0,0,0,1.77-2ZM82.64,67.3a15.93,15.93,0,0,1-12.5,6.35A15.65,15.65,0,0,1,59,68.87c-6.88-7-7.5-19-1.38-26.8a16,16,0,0,1,12.51-6.36,15.6,15.6,0,0,1,11.1,4.79C88.15,47.46,88.77,59.48,82.64,67.3ZM61.9,75.67A163.52,163.52,0,0,1,45,90S0,58.07,0,26C0,11.64,10.25,0,22.9,0,33.46,0,42.34,8.11,45,19.13,47.65,8.11,56.53,0,67.08,0,79.73,0,90,11.64,90,26a42.48,42.48,0,0,1-3.22,15.56,22,22,0,0,0-3.16-4.05,18.91,18.91,0,0,0-13.45-5.8A19.28,19.28,0,0,0,55,39.41c-7.42,9.47-6.67,24,1.67,32.45a20,20,0,0,0,5.21,3.81"/></g></g></g></g></svg>