<?xml version="1.0" encoding="UTF-8" standalone="no"?>
<!-- Created with Inkscape (http://www.inkscape.org/) -->
<svg id="svg4112" xmlns:rdf="http://www.w3.org/1999/02/22-rdf-syntax-ns#" xmlns="http://www.w3.org/2000/svg" height="44.444mm" width="44.444mm" version="1.1" xmlns:cc="http://creativecommons.org/ns#" xmlns:dc="http://purl.org/dc/elements/1.1/" viewBox="0 0 44.444447 44.444443">
 <metadata id="metadata4114">
  <rdf:RDF>
   <cc:Work rdf:about="">
    <dc:format>image/svg+xml</dc:format>
    <dc:type rdf:resource="http://purl.org/dc/dcmitype/StillImage"/>
    <dc:title/>
   </cc:Work>
  </rdf:RDF>
 </metadata>
 <g id="g4126" fill="#333" transform="matrix(.048705 0 0 .05528 32.4 -58.08)">
  <g id="g4128" fill="#333" transform="matrix(2.3567,0,0,2.3567,-3911.8,21.895)">
   <path id="path4130" d="m1683.4 626.78c0-3.0078-2.4453-5.4453-5.4453-5.4453h-18.723v-18.727c0-3.0039-2.4414-5.4453-5.4453-5.4453h-10.559c-3.0039 0-5.4492 2.4414-5.4492 5.4453v18.727h-18.723c-3 0-5.4453 2.4375-5.4453 5.4453v10.562c0 3 2.4453 5.4414 5.4453 5.4414h18.723v18.723c0 3.0039 2.4453 5.4453 5.4492 5.4453h10.559c3.0039 0 5.4453-2.4414 5.4453-5.4453v-18.723h18.723c3 0 5.4453-2.4414 5.4453-5.4414zm3.7656 39.398c-9.7305 10.934-23.738 17.207-38.43 17.207-12.602 0-24.719-4.6016-34.121-12.957-21.156-18.836-23.059-51.383-4.2422-72.555 9.7383-10.945 23.75-17.223 38.445-17.223 12.598 0 24.711 4.6016 34.109 12.961 21.172 18.836 23.074 51.391 4.2383 72.566zm-63.727 22.68c-27.988 23.766-51.973 38.762-51.973 38.762s-138.29-86.43-138.29-173.28c0-38.875 31.516-70.395 70.391-70.395 32.441 0 59.738 21.953 67.895 51.805 8.1562-29.852 35.453-51.805 67.891-51.805 38.879 0 70.394 31.52 70.394 70.395 0 14.188-3.707 28.359-9.8828 42.148-2.7461-3.9492-5.9805-7.6484-9.7305-10.984-11.387-10.129-26.058-15.707-41.32-15.707-17.789 0-34.754 7.6055-46.551 20.867-22.793 25.637-20.488 65.055 5.1406 87.871 4.8203 4.2852 10.234 7.7422 16.031 10.32" fill="#333"/>
  </g>
 </g>
</svg>
