<?xml version="1.0" encoding="UTF-8"?>
<!-- Created with Inkscape (http://www.inkscape.org/) -->
<svg width="31.746mm" height="31.746mm" version="1.1" viewBox="0 0 31.746033 31.746033" xmlns="http://www.w3.org/2000/svg" xmlns:cc="http://creativecommons.org/ns#" xmlns:dc="http://purl.org/dc/elements/1.1/" xmlns:rdf="http://www.w3.org/1999/02/22-rdf-syntax-ns#">
 <metadata>
  <rdf:RDF>
   <cc:Work rdf:about="">
    <dc:format>image/svg+xml</dc:format>
    <dc:type rdf:resource="http://purl.org/dc/dcmitype/StillImage"/>
    <dc:title/>
   </cc:Work>
  </rdf:RDF>
 </metadata>
 <g transform="translate(329.59 -329.6)">
  <g transform="matrix(5.847 0 0 5.847 -109.97 52.898)" fill="#fff">
   <g transform="matrix(.27148 0 0 .27148 -41.367 44.881)" fill="#fff">
    <path d="m27.02 24.004v3h-11v-11h3v-1h-4c-0.55469 0-1 0.44531-1 1v12c0 0.55078 0.44531 1 1 1h12c0.55078 0 1-0.44922 1-1v-4h-1"/>
    <path d="m33.02 9.0039h-12c-0.55469 0-1 0.44531-1 1v4h1v-3h11v11h-3v1h4c0.55078 0 1-0.44922 1-1v-12c0-0.55469-0.44922-1-1-1"/>
    <path d="m21.52 22.004v-6h5v6zm-1-7v8h7v-8h-7"/>
   </g>
  </g>
 </g>
</svg>
