<?xml version="1.0" encoding="UTF-8"?>
<!-- Created with Inkscape (http://www.inkscape.org/) -->
<svg width="44.444mm" height="44.444mm" version="1.1" viewBox="0 0 44.444447 44.444443" xmlns="http://www.w3.org/2000/svg" xmlns:cc="http://creativecommons.org/ns#" xmlns:dc="http://purl.org/dc/elements/1.1/" xmlns:rdf="http://www.w3.org/1999/02/22-rdf-syntax-ns#">
 <metadata>
  <rdf:RDF>
   <cc:Work rdf:about="">
    <dc:format>image/svg+xml</dc:format>
    <dc:type rdf:resource="http://purl.org/dc/dcmitype/StillImage"/>
    <dc:title/>
   </cc:Work>
  </rdf:RDF>
 </metadata>
 <g transform="translate(219.81 438.46)">
  <g transform="matrix(.33855 0 0 .33856 -534.08 -374.58)">
   <g transform="translate(-88.825 -57.366)" fill-rule="evenodd">
    <path d="m1032.8-0.03892h99.844c8.6562 0 15.715-7.0586 15.715-15.715v-99.844c0-8.6562-7.0586-15.715-15.715-15.715h-99.844c-8.6562 0-15.719 7.0586-15.719 15.715v99.844c0 8.6562 7.0625 15.715 15.719 15.715" fill="#0a0707" fill-opacity=".46961"/>
    <path d="m1032.8-7.1131h99.848c4.75 0 8.6406-3.8906 8.6406-8.6406v-99.844c0-4.7539-3.8906-8.6445-8.6406-8.6445h-99.848c-4.7539 0-8.6445 3.8906-8.6445 8.6445v99.844c0 4.75 3.8906 8.6406 8.6445 8.6406" fill="#fff"/>
   </g>
  </g>
  <g transform="matrix(.42684 0 0 .38973 -228.23 -424.99)" fill="#354251">
   <g transform="translate(-11.516 -43.506)" fill="#354251">
    <path d="m120.48 60.211v-7.082h-59.285l-4.9102-8.8047c-0.625-1.1211-1.7422-1.8203-3.0273-1.8203h-7.1523v7.082h5.0039l20.711 37.141c0.625 1.1211 1.8086 1.8203 3.0938 1.8203h31.402v-7.0859h-29.32l-3.9492-7.082h40.352v-7.082h-44.301l-3.9531-7.0859h55.336"/>
    <path d="m85.199 100.95c0 2.9336-2.3828 5.3125-5.3125 5.3125-2.9336 0-5.3125-2.3789-5.3125-5.3125 0-2.9336 2.3789-5.3125 5.3125-5.3125 2.9297 0 5.3125 2.3789 5.3125 5.3125"/>
    <path d="m106.32 100.95c0 2.9336-2.3789 5.3125-5.3125 5.3125-2.9336 0-5.3125-2.3789-5.3125-5.3125 0-2.9336 2.3789-5.3125 5.3125-5.3125 2.9336 0 5.3125 2.3789 5.3125 5.3125"/>
    <path d="m92.148 35.547v10.5h-7.082v-10.5h-7.332l10.746-10.746 10.75 10.746h-7.082"/>
   </g>
  </g>
 </g>
</svg>
