<?xml version="1.0" encoding="UTF-8" standalone="no"?>
<!-- Created with Inkscape (http://www.inkscape.org/) -->
<svg id="svg3416" xmlns:rdf="http://www.w3.org/1999/02/22-rdf-syntax-ns#" xmlns="http://www.w3.org/2000/svg" height="44.444mm" width="44.444mm" version="1.1" xmlns:cc="http://creativecommons.org/ns#" xmlns:dc="http://purl.org/dc/elements/1.1/" viewBox="0 0 44.444447 44.444443">
 <metadata id="metadata3418">
  <rdf:RDF>
   <cc:Work rdf:about="">
    <dc:format>image/svg+xml</dc:format>
    <dc:type rdf:resource="http://purl.org/dc/dcmitype/StillImage"/>
    <dc:title/>
   </cc:Work>
  </rdf:RDF>
 </metadata>
 <g id="g3420" transform="translate(306.46 100.83)">
  <g id="g3430" transform="matrix(.36788 0 0 .47256 -622.65 120.13)" fill="#333">
   <g id="g3432" transform="matrix(.22302 0 0 .22302 978.72 295.52)" fill="#333">
    <path id="path3434" d="m-427.14-3073.6c0 6.5664-2.6914 11.887-6.0117 11.887h-18.781c-3.3203 0-6.0117-5.3203-6.0117-11.887v-277.44c0-6.5664 2.6914-11.891 6.0117-11.891h18.781c3.3203 0 6.0117 5.3242 6.0117 11.891v277.44"/>
    <path id="path3436" d="m-71.016-3073.6c0 6.5664-2.6914 11.887-6.0117 11.887h-18.785c-3.3203 0-6.0117-5.3203-6.0117-11.887v-277.44c0-6.5664 2.6914-11.891 6.0117-11.891h18.785c3.3203 0 6.0117 5.3242 6.0117 11.891v277.44"/>
    <path id="path3438" d="m-392.64-3101.5c0 5.9336-1.8281 10.742-4.0898 10.742h-12.77c-2.2578 0-4.0859-4.8086-4.0859-10.742v-250.74c0-5.9336 1.8281-10.746 4.0859-10.746h12.77c2.2617 0 4.0898 4.8125 4.0898 10.746v250.74"/>
    <path id="path3440" d="m-339.65-3101.5c0 5.9336-3.125 10.742-6.9726 10.742h-21.789c-3.8516 0-6.9726-4.8086-6.9726-10.742v-250.74c0-5.9336 3.1211-10.746 6.9726-10.746h21.789c3.8476 0 6.9726 4.8125 6.9726 10.746v250.74"/>
    <path id="path3442" d="m-311.8-3101.5c0 5.9336-1.25 10.742-2.7891 10.742h-8.7109c-1.543 0-2.7891-4.8086-2.7891-10.742v-250.74c0-5.9336 1.2461-10.746 2.7891-10.746h8.7109c1.5391 0 2.7891 4.8125 2.7891 10.746v250.74"/>
    <path id="path3444" d="m-274.13-3101.5c0 5.9336-1.7187 10.742-3.8359 10.742h-11.98c-2.1172 0-3.832-4.8086-3.832-10.742v-250.74c0-5.9336 1.7148-10.746 3.832-10.746h11.98c2.1172 0 3.8359 4.8125 3.8359 10.746v250.74"/>
    <path id="path3446" d="m-226.3-3101.5c0 5.9336-2.7734 10.742-6.1914 10.742h-19.34c-3.418 0-6.1875-4.8086-6.1875-10.742v-250.74c0-5.9336 2.7695-10.746 6.1875-10.746h19.34c3.418 0 6.1914 4.8125 6.1914 10.746v250.74"/>
    <path id="path3448" d="m-186.85-3101.5c0 5.9336-2.1289 10.742-4.75 10.742h-14.844c-2.6211 0-4.7461-4.8086-4.7461-10.742v-250.74c0-5.9336 2.125-10.746 4.7461-10.746h14.844c2.6211 0 4.75 4.8125 4.75 10.746v250.74"/>
    <path id="path3450" d="m-115.38-3101.5c0 5.9336-2.1289 10.742-4.75 10.742h-14.844c-2.625 0-4.75-4.8086-4.75-10.742v-250.74c0-5.9336 2.125-10.746 4.75-10.746h14.844c2.6211 0 4.75 4.8125 4.75 10.746v250.74"/>
    <path id="path3452" d="m-158.36-3101.5c0 5.9336-1.0664 10.742-2.3789 10.742h-7.418c-1.3125 0-2.375-4.8086-2.375-10.742v-250.74c0-5.9336 1.0625-10.746 2.375-10.746h7.418c1.3125 0 2.3789 4.8125 2.3789 10.746v250.74"/>
   </g>
  </g>
 </g>
</svg>
